:version 1.10
:name ASF
:units
  mass 1
  length 1
  angle deg
:documentation
  ASF file generated by Kaydara
:root
  axis xyz
  order  tx ty tz rx ry rz
  position 0 0 0
  orientation 0 0 0
:bonedata
  begin
    id 1
    name RightUpLegDummy
    direction -0.718183 -0.695806 0.00816078
    length 4.904
    axis 0 0 0 xyz
  end
  begin
    id 2
    name RightUpLeg
    direction 3.53373e-006 -0.995788 0.0916898
    length 17.4976
    axis -3.49089 -0.000906625 0.000286804 xyz
    dof rx ry rz
  end
  begin
    id 3
    name RightLeg
    direction 0.00371092 -0.995096 -0.0988419
    length 16.5821
    axis 3.68512 0.0193738 -0.131023 xyz
    dof rx ry rz
  end
  begin
    id 4
    name RightFoot
    direction 0.00079151 -0.46099 0.887405
    length 3.77069
    axis 4.81691e-005 -0.120479 -0.188788 xyz
    dof rx ry rz
  end
  begin
    id 5
    name RightToes
    direction 0 0 0
    length 0
    axis 0 0 0 xyz
    dof rx ry rz
  end
  begin
    id 6
    name SpineDummy
    direction 8.3039e-015 1 4.57515e-016
    length 4.6813
    axis 0 0 0 xyz
  end
  begin
    id 7
    name Spine
    direction -3.15643e-008 0.999988 0.00495137
    length 10.1015
    axis -0.001389 0.000121418 2.40972e-006 xyz
    dof rx ry rz
  end
  begin
    id 8
    name Spine1
    direction 0 0 0
    length 0
    axis -0.001389 0.000121451 1.30017e-006 xyz
    dof rx ry rz
  end
  begin
    id 9
    name HEadDummy
    direction -1.99912e-008 0.999999 0.00127422
    length 3.43865
    axis -0.001389 0.000121451 1.30017e-006 xyz
  end
  begin
    id 10
    name HEad
    direction 0 0 0
    length 0
    axis 0 0 0 xyz
    dof rx ry rz
  end
  begin
    id 11
    name LeftShoulder1Dummy
    direction 0.998891 -0.0402509 -0.0244456
    length 3.5433
    axis -0.001389 0.000121451 1.30017e-006 xyz
  end
  begin
    id 12
    name LeftShoulder1
    direction 0.99951 -0.000327763 0.0313091
    length 4.05031
    axis -0.001389 0.000121451 1.30017e-006 xyz
    dof rx ry rz
  end
  begin
    id 13
    name LeftArm
    direction 0.998561 -0.00100056 -0.0536182
    length 10.3537
    axis -23.1894 0.134784 0.967509 xyz
    dof rx ry rz
  end
  begin
    id 14
    name LeftForeArm
    direction 0.998903 0.00866432 0.046012
    length 8.70632
    axis -9.91835 -0.06569 -0.177794 xyz
    dof rx ry rz
  end
  begin
    id 15
    name LeftHand
    direction 0 0 0
    length 0
    axis 0 0 0 xyz
    dof rx ry rz
  end
  begin
    id 16
    name RightShoulderDummy
    direction -0.998891 -0.0402509 -0.0244414
    length 3.5433
    axis -0.001389 0.000121451 1.30017e-006 xyz
  end
  begin
    id 17
    name RightShoulder
    direction -0.99951 -0.000327807 0.0313133
    length 4.05031
    axis 0.215806 0.000203643 -0.0068026 xyz
    dof rx ry rz
  end
  begin
    id 18
    name RightArm
    direction -0.998573 -0.000999564 -0.053403
    length 10.3947
    axis -23.2009 -0.134239 -0.964101 xyz
    dof rx ry rz
  end
  begin
    id 19
    name RightForeArm
    direction -0.998898 0.00868028 0.0461306
    length 8.68355
    axis -9.92322 0.0658061 0.178868 xyz
    dof rx ry rz
  end
  begin
    id 20
    name RightHand
    direction 0 0 0
    length 0
    axis 0 0 0 xyz
    dof rx ry rz
  end
  begin
    id 21
    name LeftUpLegDummy
    direction 0.718183 -0.695806 0.00816078
    length 4.904
    axis 0 0 0 xyz
  end
  begin
    id 22
    name LeftUpLeg
    direction -6.81752e-006 -0.995793 0.0916337
    length 17.4976
    axis -3.48766 0.00143442 -0.000524262 xyz
    dof rx ry rz
  end
  begin
    id 23
    name LeftLeg
    direction -0.00601358 -0.995091 -0.0987824
    length 16.5821
    axis 3.68178 -0.00654042 -0.000285133 xyz
    dof rx ry rz
  end
  begin
    id 24
    name LeftFoot
    direction -0.00417578 -0.460984 0.887399
    length 3.77069
    axis 1.87233e-006 4.66016e-005 -8.6538e-006 xyz
    dof rx ry rz
  end
  begin
    id 25
    name LeftToes
    direction 0 0 0
    length 0
    axis 0 0 0 xyz
    dof rx ry rz
  end
:hierarchy
  begin
    root RightUpLegDummy SpineDummy LeftUpLegDummy
    RightUpLegDummy RightUpLeg
    RightUpLeg RightLeg
    RightLeg RightFoot
    RightFoot RightToes
    SpineDummy Spine
    Spine Spine1
    Spine1 HEadDummy LeftShoulder1Dummy RightShoulderDummy
    HEadDummy HEad
    LeftShoulder1Dummy LeftShoulder1
    LeftShoulder1 LeftArm
    LeftArm LeftForeArm
    LeftForeArm LeftHand
    RightShoulderDummy RightShoulder
    RightShoulder RightArm
    RightArm RightForeArm
    RightForeArm RightHand
    LeftUpLegDummy LeftUpLeg
    LeftUpLeg LeftLeg
    LeftLeg LeftFoot
    LeftFoot LeftToes
  end

:SAMPLES-PER-SECOND 30
:FULLY-SPECIFIED
:DEGREES
48
root  65.361 39.2054 0.925222 -155.715 -86.7726 152.899
RightUpLeg  -27.3926 -11.3966 -7.4753
RightLeg  34.2982 -5.6417 -4.37995
RightFoot  -3.65183 -0.666561 9.5296
RightToes  0.000481921 0.542163 -0.142578
Spine  16.63 -4.14076 -10.7872
Spine1  -4.30391 -7.67665 13.2522
HEad  -10.0285 12.3941 -4.06627
LeftShoulder1  6.49333 -10.1222 -41.2992
LeftArm  5.25855 -2.41778 -43.1257
LeftForeArm  56.1856 -56.5122 -12.1538
LeftHand  -0.25398 0.0180481 5.50724
RightShoulder  2.56986 4.32166 26.7715
RightArm  7.00477 -44.2289 48.0066
RightForeArm  -14.3194 38.2804 9.65744
RightHand  -2.97274 8.83541 -24.3546
LeftUpLeg  7.73147 8.51305 3.10421
LeftLeg  13.466 11.6179 -1.20378
LeftFoot  -18.7416 -0.325302 -6.76226
LeftToes  1.06247e-005 4.65869e-005 -8.65512e-006
49
root  64.2787 38.9988 0.574192 -138.63 -87.3265 136.652
RightUpLeg  -25.32 -11.4623 -8.02824
RightLeg  29.9435 -4.27768 -2.894
RightFoot  -4.02904 -0.611014 9.11633
RightToes  0.000481921 0.542163 -0.142578
Spine  16.7385 -4.76405 -12.5248
Spine1  -7.0126 -8.42915 15.5793
HEad  -11.1025 13.7271 -4.45583
LeftShoulder1  5.66866 -8.94715 -39.2888
LeftArm  2.72808 0.226085 -44.976
LeftForeArm  56.4464 -59.6277 -13.9761
LeftHand  -0.25398 0.0180481 5.50724
RightShoulder  1.998 3.03992 24.3726
RightArm  2.36395 -46.5741 47.0575
RightForeArm  -9.56126 46.8259 12.6248
RightHand  -2.76987 8.30728 -23.565
LeftUpLeg  8.58055 8.73427 3.67482
LeftLeg  13.4783 10.3095 -1.5202
LeftFoot  -19.4698 -0.411633 -7.43721
LeftToes  1.06247e-005 4.65869e-005 -8.65512e-006
50
root  63.0876 38.8116 0.167139 -114.128 -88.2513 113.375
RightUpLeg  -23.0274 -12.3586 -7.54069
RightLeg  26.3647 -2.99732 -1.83288
RightFoot  -3.53465 -0.567539 7.97394
RightToes  0.000481921 0.542163 -0.142578
Spine  16.0706 -5.36206 -13.1303
Spine1  -9.15707 -8.92528 17.9864
HEad  -12.7677 14.5055 -4.68073
LeftShoulder1  5.02925 -7.80566 -38.29
LeftArm  -0.318667 4.49632 -45.7927
LeftForeArm  53.0016 -60.716 -15.0168
LeftHand  -0.25398 0.0180481 5.50724
RightShoulder  1.66798 2.30072 22.4966
RightArm  -5.48305 -48.1362 47.2428
RightForeArm  -1.75287 57.2109 18.1046
RightHand  -2.28668 6.85898 -21.8303
LeftUpLeg  9.08529 9.21489 4.66276
LeftLeg  13.4288 8.42077 -1.04694
LeftFoot  -20.2511 -0.516855 -8.15521
LeftToes  1.06247e-005 4.65869e-005 -8.65512e-006
51
root  61.9077 38.659 -0.221359 -90.9176 -89.5642 91.5007
RightUpLeg  -21.7312 -13.8434 -5.65293
RightLeg  24.9703 -2.23902 -1.35655
RightFoot  -3.25615 -0.430663 5.74609
RightToes  0.000481921 0.542163 -0.142578
Spine  14.9896 -5.29822 -10.9837
Spine1  -10.4657 -8.325 18.8059
HEad  -16.1607 14.4027 -4.96826
LeftShoulder1  5.13308 -7.75412 -39.3218
LeftArm  -2.6914 9.5356 -44.242
LeftForeArm  44.6813 -58.697 -14.4603
LeftHand  -0.25398 0.0180481 5.50724
RightShoulder  1.65931 2.24246 22.6178
RightArm  -13.2118 -46.5627 47.2873
RightForeArm  8.76186 67.3309 27.9019
RightHand  -1.95289 5.61693 -20.7723
LeftUpLeg  8.58441 9.82721 6.12933
LeftLeg  14.9725 6.117 0.69039
LeftFoot  -21.1772 -0.804944 -10.7727
LeftToes  1.06247e-005 4.65869e-005 -8.65512e-006
52
root  60.8582 38.5323 -0.556428 95.9976 -88.6923 -94.7075
RightUpLeg  -21.4028 -14.8318 -3.18012
RightLeg  26.1306 -1.65263 -1.10935
RightFoot  -4.3009 -0.25729 3.69264
RightToes  0.000481921 0.542163 -0.142578
Spine  14.5761 -4.17627 -5.82491
Spine1  -11.3827 -6.20119 16.5275
HEad  -21.4073 13.377 -5.71558
LeftShoulder1  5.96029 -8.90977 -41.6215
LeftArm  -3.24968 14.1986 -40.6157
LeftForeArm  34.9784 -52.3875 -11.8367
LeftHand  -0.25398 0.0180481 5.50724
RightShoulder  1.98282 2.81307 25.2341
RightArm  -17.8889 -39.5606 45.1252
RightForeArm  20.1322 72.8419 38.4624
RightHand  -1.76563 4.88887 -20.1039
LeftUpLeg  6.36566 8.66034 7.83452
LeftLeg  20.8891 6.06503 3.08777
LeftFoot  -20.4008 -1.04697 -14.8708
LeftToes  1.06247e-005 4.65869e-005 -8.65512e-006
53
root  59.9598 38.452 -0.839316 113.248 -86.8514 -112.14
RightUpLeg  -20.661 -14.7095 -1.24692
RightLeg  27.7621 -0.949749 -0.779966
RightFoot  -6.03846 -0.173703 2.88883
RightToes  0.000481921 0.542163 -0.142578
Spine  15.2822 -2.51494 1.30284
Spine1  -12.0024 -3.12991 10.8235
HEad  -26.316 11.3305 -6.64126
LeftShoulder1  6.86511 -10.2627 -43.3759
LeftArm  -1.96092 18.0589 -36.4138
LeftForeArm  30.8784 -42.5281 -8.22084
LeftHand  -0.25398 0.0180481 5.50724
RightShoulder  2.58246 3.85639 29.068
RightArm  -19.3165 -27.1247 40.4504
RightForeArm  22.0248 72.3106 36.8511
RightHand  -1.56925 4.28571 -19.0036
LeftUpLeg  2.10196 6.41834 9.58891
LeftLeg  31.8597 7.85814 5.58146
LeftFoot  -15.4545 -0.520738 -16.3604
LeftToes  1.06247e-005 4.65869e-005 -8.65512e-006
54
root  59.1168 38.4575 -1.08491 125.478 -85.5749 -124.914
RightUpLeg  -18.9115 -13.9904 -0.566298
RightLeg  28.1464 -0.109707 -0.305784
RightFoot  -7.54739 -0.153408 3.09967
RightToes  0.000481921 0.542163 -0.142578
Spine  16.084 -0.879325 8.39382
Spine1  -11.711 0.0936483 2.879
HEad  -29.5572 8.49646 -7.9817
LeftShoulder1  7.42356 -11.1625 -44.062
LeftArm  0.543863 21.3548 -32.0811
LeftForeArm  32.371 -31.8595 -5.06833
LeftHand  -0.25398 0.0180481 5.50724
RightShoulder  3.3719 5.20518 32.7548
RightArm  -18.9707 -11.6011 33.9091
RightForeArm  16.8386 65.9921 25.0059
RightHand  -1.49597 4.45425 -17.8644
LeftUpLeg  -3.54047 6.11917 10.5459
LeftLeg  44.2516 7.34387 7.95628
LeftFoot  -7.48927 0.466815 -13.0298
LeftToes  1.06247e-005 4.65869e-005 -8.65512e-006
55
root  58.2597 38.5301 -1.26726 138.546 -84.8242 -138.267
RightUpLeg  -16.9597 -13.2279 -0.913002
RightLeg  27.717 0.626236 0.113176
RightFoot  -8.83381 -0.1409 3.69779
RightToes  0.000481921 0.542163 -0.142578
Spine  16.1397 0.673443 14.1193
Spine1  -10.275 3.13106 -4.76968
HEad  -31.209 5.48053 -9.76988
LeftShoulder1  7.7477 -11.6545 -44.5141
LeftArm  1.93753 24.5503 -27.0743
LeftForeArm  32.7026 -22.0927 -3.70548
LeftHand  -0.25398 0.0180481 5.50724
RightShoulder  4.17251 6.59589 35.3577
RightArm  -17.3204 4.47149 26.2564
RightForeArm  13.0866 53.2203 14.2248
RightHand  -1.66192 5.91549 -17.3393
LeftUpLeg  -9.78285 6.11541 10.2882
LeftLeg  55.2243 5.53187 8.96764
LeftFoot  -2.30988 0.731572 -8.85557
LeftToes  1.06247e-005 4.65869e-005 -8.65512e-006
56
root  57.3348 38.7419 -1.39926 151.114 -84.5486 -150.802
RightUpLeg  -14.8277 -12.7699 -1.96252
RightLeg  26.4598 1.12882 0.361
RightFoot  -9.74892 -0.125281 4.22782
RightToes  0.000481921 0.542163 -0.142578
Spine  15.8784 2.0438 17.5331
Spine1  -8.87677 5.57594 -10.3494
HEad  -31.8357 3.3263 -11.5704
LeftShoulder1  7.90247 -11.8531 -44.8322
LeftArm  -2.66543 28.3514 -21.5967
LeftForeArm  31.9785 -12.9048 -5.38997
LeftHand  -0.25398 0.0180481 5.50724
RightShoulder  4.61093 7.57032 35.6809
RightArm  -11.515 19.7395 19.7051
RightForeArm  8.71751 34.9018 7.24954
RightHand  -1.75444 7.34853 -16.2956
LeftUpLeg  -15.6479 6.10498 9.31183
LeftLeg  63.1841 3.842 8.85675
LeftFoot  -1.98959 0.653238 -7.83802
LeftToes  1.06247e-005 4.65869e-005 -8.65512e-006
57
root  56.3598 39.0453 -1.50609 161.151 -85.0661 -160.698
RightUpLeg  -12.2364 -12.9512 -3.4624
RightLeg  24.4041 1.37288 0.537819
RightFoot  -10.2293 -0.112951 4.46283
RightToes  0.000481921 0.542163 -0.142578
Spine  15.9207 2.82982 18.9287
Spine1  -8.6286 6.9114 -14.0157
HEad  -31.631 2.81088 -13.0018
LeftShoulder1  7.75014 -11.8119 -44.0468
LeftArm  -4.84066 33.4153 -17.0671
LeftForeArm  27.1562 -5.88844 -5.54263
LeftHand  -0.25398 0.0180481 5.50724
RightShoulder  4.40144 7.77603 33.0599
RightArm  -4.45078 32.1769 16.9764
RightForeArm  8.23145 16.549 5.24721
RightHand  -1.39804 7.17987 -13.258
LeftUpLeg  -20.8523 5.66943 8.14069
LeftLeg  67.5219 2.86631 8.3697
LeftFoot  -3.60561 0.61899 -8.82406
LeftToes  1.06247e-005 4.65869e-005 -8.65512e-006
58
root  55.3562 39.3277 -1.61101 172.736 -86.5745 -172.16
RightUpLeg  -9.07514 -13.3754 -5.41506
RightLeg  21.8595 0.935502 0.908069
RightFoot  -10.6081 -0.101987 4.70045
RightToes  0.000481921 0.542163 -0.142578
Spine  16.0333 3.05716 19.0632
Spine1  -8.93611 7.32677 -16.6456
HEad  -30.8578 2.62399 -13.139
LeftShoulder1  7.3755 -11.7298 -42.0324
LeftArm  -2.69792 39.3521 -13.305
LeftForeArm  24.0863 -3.01793 -4.93717
LeftHand  -0.25398 0.0180481 5.50724
RightShoulder  3.72879 7.27139 28.5887
RightArm  -11.6232 39.2746 17.3851
RightForeArm  22.2352 4.41381 8.01169
RightHand  -1.13829 6.48305 -11.532
LeftUpLeg  -25.3869 4.41269 6.86341
LeftLeg  68.3354 2.57398 7.92859
LeftFoot  -4.66127 0.557294 -9.04263
LeftToes  1.06247e-005 4.65869e-005 -8.65512e-006
59
root  54.3284 39.5407 -1.7243 -153.099 -88.2264 153.697
RightUpLeg  -5.49214 -13.6097 -7.62138
RightLeg  19.204 -0.118729 1.56694
RightFoot  -11.135 -0.085071 5.35006
RightToes  0.000481921 0.542163 -0.142578
Spine  15.7164 3.22523 18.1381
Spine1  -8.40424 7.49942 -18.117
HEad  -30.0254 1.9462 -12.4859
LeftShoulder1  7.09829 -11.8389 -40.0164
LeftArm  -0.137252 45.1111 -9.52266
LeftForeArm  24.0234 -3.50176 -4.66722
LeftHand  -0.25398 0.0180481 5.50724
RightShoulder  3.08139 6.47589 24.7595
RightArm  -14.022 41.1937 18.5726
RightForeArm  22.3474 3.20572 6.83732
RightHand  -1.34282 6.28713 -13.6748
LeftUpLeg  -28.8082 2.7801 5.57027
LeftLeg  65.9355 2.80714 7.56629
LeftFoot  -5.47713 0.459405 -8.31963
LeftToes  1.06247e-005 4.65869e-005 -8.65512e-006
